<?xml version="1.0" encoding="UTF-8"?>
<svg xmlns="http://www.w3.org/2000/svg" width="21.612" height="25.399" viewBox="0 0 21.612 25.399">
  <path id="Caminho_79" data-name="Caminho 79" d="M3.2,25.391A2.783,2.783,0,0,1,.687,22.74c-.109-1.577.086-3.251,0-4.838-.926.119-.9-.909,0-.793l0-5.577c-.911-.023-.932-.876,0-.85V5.056c-.923.128-.9-.88,0-.793C.718,3.031.466,1.8,1.474.817A3.142,3.142,0,0,1,5.356.544c.137.1.59.6.671.595a3.042,3.042,0,0,1,4.723-.024l.085.023a3.054,3.054,0,0,1,4.753,0c.085,0,.51-.476.642-.572a3.115,3.115,0,0,1,4.162.525c.727.946.5,2.084.534,3.171.9-.087.923.921,0,.793v5.654c.918-.121.913.859,0,.794v5.6c.9-.115.923.913,0,.793-.077,1.573.1,3.224,0,4.788a2.776,2.776,0,0,1-2.518,2.7h-.783a4.082,4.082,0,0,1-1.4-.57c-.132-.1-.556-.572-.642-.572A3.008,3.008,0,0,1,13.6,25.391H12.82a3.2,3.2,0,0,1-1.985-1.141l-.085.023A3.128,3.128,0,0,1,8.8,25.391H8.012A3.008,3.008,0,0,1,6.027,24.25c-.085,0-.51.476-.642.572a4.082,4.082,0,0,1-1.4.57c-.25-.019-.539.026-.783,0M1.64,2.155c-.108.616.081,1.465,0,2.108H5.553V2.452A1.946,1.946,0,0,0,3.679.791,2.057,2.057,0,0,0,1.64,2.155M10.36,4.263V2.353C10.36.867,7.71.159,6.738,1.619a3.523,3.523,0,0,0-.291.585V4.263Zm4.807,0V2.2a3.528,3.528,0,0,0-.291-.585c-.972-1.461-3.622-.752-3.622.734v1.91Zm4.807,0V2.155a2.511,2.511,0,0,0-.323-.607c-1.077-1.386-3.59-.661-3.59.9v1.81h1.7a.5.5,0,0,1,.361.326c.025.148-.1.467-.249.467H16.146l-.084.074v5.505l.084.074h1.733a1.426,1.426,0,0,1,.222.2.428.428,0,0,1-.39.594H16.062v5.6h1.761c.236,0,.393.422.255.623a1.075,1.075,0,0,1-.255.17H16.062v3.075c.2-.044.344-.217.52-.307a3.223,3.223,0,0,1,3.393.307V17.9h-.866c-.234,0-.392-.41-.246-.615a1.548,1.548,0,0,1,.246-.179h.866V11.5c-.392.018-1.252.067-1.173-.467.012-.083.186-.327.25-.327h.922V5.056h-.866c-.091,0-.274-.191-.3-.284-.146-.594.731-.519,1.163-.51M1.64,10.71H5.469l.084-.074V5.131l-.084-.074H1.64ZM10.36,5.056H6.447V10.71H10.36Zm4.807,0H11.255V10.71h3.913ZM5.553,11.5H1.64v5.6H5.553Zm4.807,0H6.447v5.6H10.36Zm4.807,0H11.255v5.6h3.913ZM5.553,17.9H1.64v3.075a3.223,3.223,0,0,1,3.393-.307c.176.09.32.263.52.307Zm4.807,0H6.447v3.075a3.268,3.268,0,0,1,3.018-.47l.9.47Zm4.807,0H11.255v3.075l.9-.47a3.268,3.268,0,0,1,3.018.47ZM4.974,24.084c1.81-1.6-.987-4.1-2.8-2.457s.979,4.07,2.8,2.457m3.081-2.946a1.744,1.744,0,1,0,.43,3.46c2.634-.1,2.4-3.8-.43-3.46m4.806,0c-2.555.357-1.811,4.04.911,3.388,2.258-.541,1.612-3.74-.911-3.388m3.78,2.946c1.819,1.613,4.6-.822,2.8-2.457s-4.607.852-2.8,2.457" transform="translate(0 0)" fill="#16a34a"></path>
</svg>
