<?xml version="1.0" encoding="UTF-8"?>
<svg xmlns="http://www.w3.org/2000/svg" width="21.611" height="25.399" viewBox="0 0 21.611 25.399">
  <path id="Caminho_10" data-name="Caminho 10" d="M6.759,25.4l-.433-.324L4.248,22.251.706,22.22a.773.773,0,0,1-.7-.857L3.13,14.855A9.7,9.7,0,0,1,6.34,1.2c6.5-3.685,14.287,1.637,13.692,9.155a10.407,10.407,0,0,1-1.541,4.512l3.032,6.253a.755.755,0,0,1-.6,1.1l-3.582.015-2.086,2.889-.386.273H14.53a1.024,1.024,0,0,1-.492-.412L11.174,19.1c-.057-.154-.666-.122-.7-.07L7.636,24.886A1,1,0,0,1,7.1,25.4Zm3.61-23.881C4,1.89.725,9.561,4.8,14.641a7.716,7.716,0,0,0,12.873-1.306c2.878-5.516-1.237-12.173-7.307-11.818M1.932,20.738H4.8c.076,0,.32.225.387.3.543.586,1.007,1.58,1.547,2.129.04.04.042.071.117.053L8.931,18.8A8.807,8.807,0,0,1,5,16.919c-.13-.108-.811-.792-.87-.792Zm17.763,0-2.244-4.61A8.932,8.932,0,0,1,12.7,18.8l2.077,4.412.1-.031c.514-.646.975-1.493,1.516-2.1.084-.095.319-.346.435-.346Z" transform="translate(0 0.001)" fill="#16a34a"></path>
</svg>
