<?xml version="1.0" encoding="UTF-8"?>
<svg xmlns="http://www.w3.org/2000/svg" width="32.067" height="38.023" viewBox="0 0 32.067 38.023">
  <path id="Caminho_79" data-name="Caminho 79" d="M5.223,38.062a4.414,4.414,0,0,1-4-4c-.163-2.366.124-4.619,0-7-1.389.179-1.352-1.175,0-1v-9c-1.367-.034-1.4-1.038,0-1v-8c-1.385.192-1.356-2.13,0-2,.043-1.849-.513-3.519,1-5,1.493-1.461,4.257-1.23,6,0,.206.146.877,1,1,1a4.473,4.473,0,0,1,7,0h0a4.445,4.445,0,0,1,7,0c.128,0,.8-.856,1-1a4.4,4.4,0,0,1,6,1c1.092,1.42.945,2.368,1,4,1.356-.13,1.385,2.192,0,2v8c1.378-.181,1.369,1.1,0,1v9c1.356-.173,1.385,1.181,0,1-.116,2.361.152,4.652,0,7a4.328,4.328,0,0,1-4,4h-1a5.931,5.931,0,0,1-2-1c-.2-.144-.872-1-1-1a4.924,4.924,0,0,1-3,2h-1a5.249,5.249,0,0,1-3-2h0a5.294,5.294,0,0,1-3,2h-1a4.924,4.924,0,0,1-3-2c-.128,0-.8.856-1,1a5.932,5.932,0,0,1-2,1c-.376-.028-.634.039-1,0m-3-35c-.163.925.121,2.036,0,3h6v-2a3.613,3.613,0,0,0-3-3,2.974,2.974,0,0,0-3,2m13,3v-3c0-2.23-3.541-3.192-5-1-.087.13-1,.908-1,1v3Zm8,0v-3c0-.092-.913-.87-1-1-1.459-2.192-5-1.23-5,1v3Zm7,0v-3c0-.132-.884-.851-1-1-1.616-2.08-5-.35-5,2v2h2a2.7,2.7,0,0,1,1,1c.038.222.218,1,0,1h-3v8h3c.024,0-.02-.038,0,0,.2.388-.546,1-1,1h-2v9h3c.354,0,.206.7,0,1-.035.051.038,0,0,0h-3v4c.3-.066.736.135,1,0,1.66-.851,3.56-1.086,5,0v-4h-2c-.352,0-.22-.693,0-1,.029-.041-.024,0,0,0h2v-9c-.588.027-2.119.8-2,0,.018-.125-.1-1,0-1h2v-8h-2c-.136,0,.034-.861,0-1-.219-.892,1.351-1.014,2-1m-28,10h6v-8h-6Zm13-8h-6v8h6Zm8,0h-6v8h6Zm-15,9h-6v9h6Zm7,0h-6v9h6Zm8,0h-6v9h6Zm-15,10h-6v4c1.44-1.086,3.34-.851,5,0,.264.135.7-.066,1,0Zm7,0h-6v4c1.321-.924,3.381-.564,5,0h1Zm8,0h-6v4h1c1.619-.564,3.679-.924,5,0Zm-16,9c2.716-2.409-1.282-6.464-4-4s1.27,6.421,4,4m5-4c-3.446.418-2.73,5.145,1,5,3.954-.154,3.243-5.514-1-5m7,0c-3.835.535-3.087,5.979,1,5,3.389-.811,2.787-5.528-1-5m6,4c2.73,2.421,6.707-1.546,4-4s-6.716,1.591-4,4" transform="translate(-0.186 -0.051)" fill="#fff"></path>
</svg>
