<?xml version="1.0" encoding="UTF-8"?>
<svg xmlns="http://www.w3.org/2000/svg" width="21.611" height="25.399" viewBox="0 0 21.611 25.399">
  <path id="Caminho_6" data-name="Caminho 6" d="M10.974,0l.336.224,6.608,7.4c.258.333-.064.836-.5.836h-2.56l4.828,5.478c.316.322-.019.856-.467.856h-2.5L21.507,20.3c.286.322-.063.825-.488.825H13.338a8.788,8.788,0,0,0,.891,2.557c.346.565,1.482,1.362.153,1.652-2.292-.151-4.9.192-7.152,0-.359-.031-.7-.26-.635-.608a11.492,11.492,0,0,1,.788-1.043,8.788,8.788,0,0,0,.891-2.557H.592c-.425,0-.775-.5-.488-.825L4.9,14.8h-2.5c-.448,0-.783-.534-.467-.856L6.754,8.461H4.194c-.436,0-.759-.5-.5-.836L10.3.223,10.637,0ZM5.46,7.372H8.132a2.143,2.143,0,0,1,.283.147.5.5,0,0,1,.075.712L3.659,13.706h2.56c.357,0,.693.483.492.779L1.858,20.041H19.752L14.9,14.486c-.2-.3.135-.779.492-.779h2.56L13.121,8.231A.5.5,0,0,1,13.2,7.52a2.144,2.144,0,0,1,.283-.147h2.673L10.833,1.384Z" transform="translate(0 0.001)" fill="#16a34a"></path>
</svg>
