<?xml version="1.0" encoding="UTF-8"?>
<svg xmlns="http://www.w3.org/2000/svg" width="29.528" height="25.399" viewBox="0 0 29.528 25.399">
  <path id="Caminho_81" data-name="Caminho 81" d="M0,.75A1.1,1.1,0,0,1,.833,0L26.06.045a1.186,1.186,0,0,1,.649.733v7.4h1.928a1.131,1.131,0,0,1,.83.9c-.123,2.321.18,4.837.007,7.135a1.073,1.073,0,0,1-.443.881,3.181,3.181,0,0,1-.394.182H26.708v7.4a1.186,1.186,0,0,1-.649.733H.649a1.214,1.214,0,0,1-.649-.7V17.154c.081-.248.51-.748.777-.748H2.763V9.038H.777c-.267,0-.7-.5-.777-.748ZM25.845,2.188V.951L25.758.865H.95L.863.951V2.188H6.591c.457,0,.433.863.058.863H3.626V5.987h7.886V3.052H8.375a1.543,1.543,0,0,1-.229-.231c-.1-.216.077-.632.287-.632ZM2.763,3.052H.863V5.987h1.9Zm11.512,0H12.462l-.086.086V5.9l.086.086h1.813Zm8.807,0H15.2V5.987h7.886Zm2.763,0h-1.9V5.987h1.9Zm0,3.8H.863V8.089l.086.086H25.845ZM28.608,9.1c-.056.019-.125-.058-.144-.058H3.626V10.42H28.608ZM5.526,11.283h-1.9v2.878h1.9Zm8.749,0H6.389v2.878h7.886Zm2.821,0H15.2v2.878h1.9Zm8.749,0H17.959v2.878h7.886Zm2.763,0h-1.9v2.878h1.9Zm0,3.742H3.626v1.381H28.464c.019,0,.088-.076.144-.058Zm-2.763,2.245H.95l-.086.086v1.238h17.47c.158,0,.364.273.373.436.007.121-.181.427-.258.427H15.2v2.935h7.886V19.457H20.117a1.559,1.559,0,0,1-.229-.231.469.469,0,0,1,.344-.632h5.612ZM2.763,19.457H.863v2.935h1.9Zm8.749,0H3.627v2.935h7.886Zm2.763,0H12.462l-.086.086v2.763l.086.086h1.813Zm11.57,0h-1.9v2.935h1.9Zm0,3.8H.863v1.238l.086.086H25.758l.086-.086Z" fill="#16a34a"></path>
</svg>
