<?xml version="1.0" encoding="UTF-8"?>
<svg xmlns="http://www.w3.org/2000/svg" width="33" height="40" viewBox="0 0 33 40" fill="none">
  <path d="M32.5003 6.874C32.651 7.05622 32.7492 7.27611 32.7843 7.51C32.7533 12.47 33.1003 17.246 31.8363 22.077C29.8863 29.533 24.4113 36.325 17.5683 39.382C16.2293 39.982 16.2943 39.861 15.0063 39.264C7.37526 35.733 1.77126 27.943 0.385261 19.391C-0.247739 15.479 0.114261 11.466 0.0152613 7.511C0.159261 6.444 1.16026 6.711 1.91526 6.558C3.00642 6.32107 4.0036 5.7679 4.78222 4.96758C5.56085 4.16726 6.08641 3.15526 6.29326 2.058C6.43226 1.326 6.21426 0.287 7.07426 0.027L25.4883 0C26.5963 0.045 26.3513 1.241 26.5023 2.054C26.7091 3.15126 27.2347 4.16326 28.0133 4.96358C28.7919 5.7639 29.7891 6.31707 30.8803 6.554C31.3143 6.641 32.1803 6.584 32.4963 6.871M8.26126 1.882C8.11426 1.934 7.96926 2.923 7.88926 3.182C7.5447 4.35597 6.91952 5.42841 6.06773 6.30668C5.21593 7.18496 4.16313 7.84267 3.00026 8.223C2.75926 8.302 1.86826 8.434 1.81726 8.59C1.81726 12.575 1.59226 16.534 2.44426 20.442C3.24217 24.2431 4.93198 27.8001 7.37442 30.82C9.81686 33.8398 12.942 36.236 16.4923 37.811C19.9901 36.188 23.0627 33.7739 25.4674 30.7596C27.8721 27.7452 29.543 24.213 30.3483 20.442C30.6953 18.7277 30.9099 16.9892 30.9903 15.242L30.9753 8.586C30.9253 8.433 29.9753 8.286 29.7273 8.198C28.6476 7.83126 27.6648 7.22522 26.8523 6.4252C26.0398 5.62518 25.4187 4.65186 25.0353 3.578C24.8573 3.068 24.8123 2.451 24.6573 2.016C24.6323 1.946 24.6113 1.894 24.5343 1.878L8.26126 1.882Z" fill="#16A34A"></path>
</svg>
