<?xml version="1.0" encoding="UTF-8"?>
<svg xmlns="http://www.w3.org/2000/svg" width="21.611" height="25.399" viewBox="0 0 21.611 25.399">
  <path id="Caminho_8" data-name="Caminho 8" d="M21.087,0a.865.865,0,0,1,.383,1.265l-7.75,8.687.086.139,4.022,3.352a.849.849,0,0,1,.044,1.043C12.234,18.2,6.5,21.759.811,25.372c-.636.193-1.069-.674-.639-1.24l8.857-9.977-.085-.139L4.578,10.368A.8.8,0,0,1,4.771,9.15L20.789,0ZM17.594,3.522,6.263,9.921,10.5,13.492c.571.793-.217,1.3-.64,1.784-1.756,2.015-3.537,4-5.3,6l11.63-7.341-3.963-3.345a.862.862,0,0,1-.041-.994Z" transform="translate(0)" fill="#16a34a"></path>
</svg>
