<?xml version="1.0" encoding="UTF-8"?>
<svg xmlns="http://www.w3.org/2000/svg" width="30.151" height="37.779" viewBox="0 0 30.151 37.779">
  <path id="Caminho_107" data-name="Caminho 107" d="M17.77.02a.885.885,0,0,1,1.113.624c.171.662.106,1.782.211,2.534C20.315,11.9,29.935,14.2,30.147,23.209c.35,14.859-19.284,19.51-27.488,8.514-3.33-4.464-4.043-12.464.847-16.093,1.954-1.451,1.959-.144,2.725,1.3.578,1.088,1.721,2.654,3.113,2.521a2.066,2.066,0,0,0,1.79-1.6c.282-1.623-.855-3.019-1.3-4.526-1.209-4.127.219-7.917,3.35-10.7A12.455,12.455,0,0,1,17.77.02M4.147,18.57C.869,23.3,2.967,29.654,7.431,32.765c7.842,5.465,19.994,1.361,20.132-8.984.077-5.86-4.363-8.2-7.465-12.324A18.4,18.4,0,0,1,16.99,5.2a11.936,11.936,0,0,0-.452-1.811c-2.591,1.5-4.766,4.338-4.56,7.467.2,2.94,2.5,4.727,1.574,7.953A4.677,4.677,0,0,1,8.871,22.04c-2.131-.139-3.624-1.816-4.724-3.47" transform="translate(0 0)" fill="#fff"></path>
</svg>
