<?xml version="1.0" encoding="UTF-8"?>
<svg xmlns="http://www.w3.org/2000/svg" width="52" height="52" viewBox="0 0 52 52" fill="none">
  <path d="M43.7001 31.9612C43.423 32.078 43.1152 32.1003 42.8241 32.0247C41.8588 31.8099 40.7848 31.1929 39.8194 30.906L40.3373 37.4006C40.2966 38.2005 40.0108 38.5923 39.1925 38.2176L36.7053 35.9239C36.0317 37.7581 35.5872 39.7445 34.9 41.5643C34.7163 42.0504 34.3612 43.1987 33.6535 42.7401C33.0272 42.3346 32.4576 40.2792 32.0111 39.5742C31.9565 39.489 31.9639 39.3993 31.8369 39.4593C30.4756 40.9123 29.2825 42.6645 27.9036 44.0894C27.5935 44.4094 27.0431 45.0228 26.5819 44.6002C25.9944 44.0607 26.3365 41.576 26.1362 40.7673L20.5043 43.6187C20.0812 43.7753 19.4439 44.0088 19.2166 43.4551C18.946 42.7961 20.1846 40.5842 20.3058 39.8083C18.3049 39.7882 16.2129 40.2483 14.2287 40.2683C13.787 40.2728 12.8113 40.3245 12.8817 39.6361C12.9648 38.83 15.3549 36.8251 15.3264 36.6308L9.33415 34.7278C8.90874 34.5274 8.15878 34.2192 8.48674 33.6358C8.82624 33.0233 11.8586 32.0264 11.8342 31.831C10.3581 30.4226 8.54424 29.2068 7.09281 27.7972C6.59619 27.3126 6.11682 26.5802 7.10184 26.2889C8.05966 26.0054 9.55249 26.3147 10.5623 26.0715L7.65113 20.4773C7.4607 19.9954 7.19234 19.3239 7.90356 19.1531C8.61477 18.9823 10.4898 20.0445 11.3056 20.2381C11.3862 20.2577 11.4367 20.2822 11.5202 20.2347L11.0023 13.4987C11.1132 12.7 11.6457 12.6989 12.2363 13.0904C12.6143 13.3411 14.4621 15.2883 14.6195 15.252L16.5548 9.19529C17.3816 7.45398 18.0207 8.86397 18.4906 9.83016C18.805 10.4722 19.0719 11.1463 19.3493 11.8057C19.4456 11.803 19.4744 11.7492 19.5331 11.6948C20.929 10.3856 22.1511 8.34185 23.5363 6.94894C24.0961 6.38879 24.6682 6.19234 24.978 7.10068L25.143 10.468L30.8643 7.54612L31.5404 7.35812L32.0558 7.64379C32.4356 8.25462 30.8738 11.2208 30.9722 11.4251L37.4216 10.9165C37.6106 10.8986 37.801 10.9299 37.9744 11.0073C38.1477 11.0847 38.2981 11.2057 38.4108 11.3584C38.4282 11.4906 38.4179 11.625 38.3808 11.753C38.3437 11.8811 38.2805 12.0001 38.1952 12.1025C37.6873 12.9568 36.6032 13.7365 35.9965 14.5441L42.1828 16.5512C44.7608 17.7938 39.3439 19.0314 39.4546 19.4096L44.2363 23.4327C46.3564 25.5057 41.7415 24.9414 40.7816 25.0739C41.5763 26.9419 42.7674 28.7139 43.5809 30.5603C43.7666 30.8915 43.8698 31.2625 43.8816 31.642L43.7001 31.9612ZM14.4354 19.8866C13.4466 21.8263 12.978 23.9893 13.0753 26.1643C13.1726 28.3392 13.8326 30.4517 14.9907 32.2953C16.1488 34.1389 17.7655 35.6504 19.6826 36.6822C21.5997 37.714 23.7518 38.2308 25.9284 38.1819C28.105 38.1331 30.2317 37.5203 32.1006 36.4036C33.9695 35.2868 35.5167 33.7043 36.591 31.8106C37.6652 29.9169 38.2298 27.7769 38.2294 25.5998C38.2291 23.4226 37.6639 21.2828 36.589 19.3895C35.4623 17.4196 33.8247 15.7905 31.8491 14.6739C29.8735 13.5574 27.633 12.9949 25.3643 13.0458C23.0956 13.0967 20.8826 13.7592 18.9591 14.9632C17.0355 16.1672 15.4727 17.8682 14.4354 19.8866Z" fill="#16A34A"></path>
  <path d="M25.509 22.4816C29.317 22.3116 30.014 27.8966 26.351 28.7046C21.922 29.6816 21.03 22.6816 25.509 22.4816Z" fill="#16A34A"></path>
</svg>
