<?xml version="1.0" encoding="UTF-8"?>
<svg xmlns="http://www.w3.org/2000/svg" width="48" height="43" viewBox="0 0 48 43" fill="none">
  <path d="M8.91549 39.9542L3.48549 30.5492C3.25395 29.8732 3.24805 29.1404 3.4687 28.4608C3.68935 27.7812 4.12461 27.1915 4.70907 26.7805L36.1575 8.61681C36.8673 8.21133 37.7049 8.09161 38.4998 8.28203C39.2948 8.47246 39.9872 8.95871 40.4362 9.64177C42.3275 12.4296 43.8044 15.8216 45.6286 18.6852C45.9029 19.4129 45.9069 20.2149 45.64 20.9454C45.373 21.6759 44.8529 22.2863 44.174 22.6658L12.9382 40.6998C12.4605 40.9509 11.9286 41.0816 11.3889 41.0805C10.8491 41.0794 10.3178 40.9466 9.84112 40.6935L8.91549 39.9542ZM41.4857 21.9154L43.3164 20.8584C43.5572 20.6958 43.7317 20.4522 43.808 20.1718C43.8843 19.8915 43.8575 19.593 43.7323 19.3308C41.9258 16.7157 40.5938 13.2366 38.7553 10.7104C38.6228 10.5066 38.43 10.3492 38.2039 10.26C37.9777 10.1708 37.7294 10.1542 37.4934 10.2127L5.63581 28.6057C5.45781 28.7908 5.34551 29.0293 5.31615 29.2845C5.28679 29.5397 5.34199 29.7974 5.47329 30.0182C6.8148 32.9017 9.03271 35.7493 10.4508 38.6395C10.6182 38.8419 10.8446 38.9869 11.0985 39.0544C11.3523 39.1219 11.6209 39.1085 11.8667 39.0159L13.772 37.9159L12.218 35.2243C12.042 34.9195 12.284 34.3167 12.5756 34.1057C12.8671 33.8946 13.66 33.744 13.8575 34.0861L15.433 36.8149L15.6024 36.8603L18.0437 35.4508L18.0891 35.2814L15.3526 30.5416C15.3294 30.3428 15.3516 30.1412 15.4176 29.9522C15.4961 29.7822 15.619 29.6365 15.7733 29.5306C15.9277 29.4247 16.1078 29.3624 16.2947 29.3503C16.4815 29.3382 16.6681 29.3768 16.8349 29.4619C17.0016 29.5471 17.1423 29.6757 17.242 29.8342L19.8745 34.3938L22.3513 32.9638L22.3967 32.7944L20.8212 30.0656C20.8162 29.8075 20.8745 29.5522 20.9912 29.3219C21.1234 29.1596 21.296 29.035 21.4918 28.9607C21.6875 28.8864 21.8994 28.8651 22.106 28.8989C22.3274 29.0238 22.5309 29.1783 22.7106 29.3581L24.1821 31.9068L26.7672 30.4143L23.9672 25.5645C23.8247 25.3177 24.2396 24.5863 24.5083 24.4438C24.8505 24.2625 25.5806 24.379 25.7736 24.7133L28.4891 29.4167L31.0698 27.9267L29.5163 25.2359C29.4828 25.0526 29.4704 24.8661 29.4794 24.6799C29.5451 24.4586 29.677 24.2627 29.8574 24.1185C30.0377 23.9743 30.2579 23.8888 30.4883 23.8734C30.7451 23.9141 30.9885 24.0154 31.1982 24.1691L32.7942 26.9334L35.3784 25.4414L32.7464 20.8827C32.6591 20.7171 32.618 20.531 32.6276 20.344C32.6373 20.157 32.6972 19.9761 32.8011 19.8203C32.9049 19.6646 33.049 19.5397 33.2179 19.459C33.3868 19.3783 33.5744 19.3447 33.7609 19.3617C33.9576 19.3991 34.1432 19.4806 34.3038 19.6001L37.0398 24.339L37.2092 24.3844L39.6505 22.9749L39.6959 22.8055L38.1209 20.0776C37.9209 19.7311 38.4433 19.1259 38.7789 18.9772C39.1145 18.8284 39.7513 18.9215 39.9273 19.2263L41.4857 21.9154Z" fill="#16A34A"></path>
  <path d="M5.3542 18.3638L28.7603 4.8503C27.8768 4.56015 25.6023 5.18053 25.65 3.68308C25.6542 3.54517 25.6866 3.40958 25.7453 3.28472C25.8041 3.15986 25.8878 3.04839 25.9914 2.95721C26.0949 2.86602 26.2161 2.79707 26.3474 2.75463C26.4787 2.71218 26.6173 2.69714 26.7546 2.71044C28.5962 2.66854 30.4384 2.75753 32.2674 2.97675C32.4214 2.98742 32.5711 3.03291 32.7051 3.1098C32.839 3.18669 32.9538 3.29297 33.0408 3.42064C33.1277 3.54831 33.1845 3.69404 33.207 3.84686C33.2295 3.99968 33.2169 4.15561 33.1704 4.3029C32.2953 5.80118 31.6346 7.51284 30.7652 9.00092C30.6539 9.24565 30.5056 9.47183 30.3256 9.67156C30.1988 9.78928 30.0434 9.87165 29.8748 9.91043C29.7062 9.94922 29.5304 9.94306 29.365 9.89258C29.1995 9.84209 29.0502 9.74904 28.932 9.62275C28.8138 9.49645 28.7308 9.34133 28.6913 9.17289C28.479 8.48717 29.5663 7.32247 29.6853 6.61643L6.41775 20.0499C7.30327 20.2777 9.86855 19.7989 9.39356 21.4842C9.15489 22.3148 8.30212 22.1697 7.64331 22.1587C5.99175 22.1261 4.33022 21.9422 2.67492 21.9072C2.52401 21.8739 2.38263 21.8068 2.26145 21.7109C2.14027 21.615 2.04247 21.4928 1.97543 21.3536C1.90839 21.2143 1.87386 21.0617 1.87445 20.9072C1.87504 20.7526 1.91074 20.6002 1.97885 20.4615C2.70511 18.7698 3.54883 17.1309 4.50384 15.5569C4.5583 15.4351 4.6366 15.3254 4.73412 15.2343C4.83163 15.1432 4.94639 15.0726 5.07164 15.0265C5.19689 14.9805 5.33008 14.9599 5.46338 14.9662C5.59668 14.9724 5.72739 15.0052 5.8478 15.0627C7.25278 15.7642 5.55939 17.4232 5.35767 18.3618" fill="#16A34A"></path>
</svg>
