<?xml version="1.0" encoding="UTF-8"?>
<svg xmlns="http://www.w3.org/2000/svg" width="42.752" height="26.649" viewBox="0 0 42.752 26.649">
  <g id="Grupo_18" data-name="Grupo 18" transform="translate(-105.624 -26.676)">
    <path id="Caminho_110" data-name="Caminho 110" d="M6.687,15.934a1.944,1.944,0,0,1,.977,3.752c-2.6.853-3.6-3.3-.977-3.752m.779,2.382c.534-.43-.088-1.448-.753-.969-.721.518.119,1.482.753.969" transform="translate(107.047 31.072)" fill="#fff"></path>
    <path id="Caminho_111" data-name="Caminho 111" d="M27.7,15.933c2.818-.406,3.01,3.795.4,3.874a1.955,1.955,0,0,1-.4-3.874m.779,1.476c-.756-.748-1.6.874-.534,1.015a.606.606,0,0,0,.534-1.015" transform="translate(112.845 31.073)" fill="#fff"></path>
    <path id="Caminho_109" data-name="Caminho 109" d="M28.953,4.519h7.5a1.544,1.544,0,0,1,.35.258l5.812,9.89c-.133,2.344.317,5.223.043,7.508-.154,1.289-2.119.534-3.035.739-.858,5.028-7.848,4.932-8.818-.009l-17.991.005c-.758,5-7.827,4.955-8.757.038-.227-.16-2.935.047-3.513-.043-.343-.055-.443-.278-.549-.58L.018.525C.19.1.56.041.974.005H27.959c.294-.051.994.258.994.567ZM27.652,1.4H1.367v17.7H5.314c.056,0,.7-.569.886-.677a4.452,4.452,0,0,1,4.825.17c.115.073.576.507.622.507H27.566Zm9.2,6.072-1-1.648h-6.9V21.608h1.908A4.449,4.449,0,0,1,39,19.845a16.2,16.2,0,0,1,.752,1.763h1.519V15.536H31.165c-.036,0-.465-.42-.394-.559.156-2.185-.191-4.62,0-6.775.028-.315.2-.733.568-.733Zm3.9,6.767c-.92-1.847-2.049-3.591-3.08-5.379H32.077v5.379ZM8.379,19.114c-4.2.126-3.85,6.662.491,6.224,3.78-.382,3.487-6.344-.491-6.224m26.806,0c-4.21.108-3.906,6.625.4,6.224,3.872-.36,3.5-6.325-.4-6.224M4.4,20.481H1.367v1.127H4.013c.214-.311.18-.779.391-1.127m23.162,0H12.558c.211.348.176.816.391,1.127H27.566Z" transform="translate(105.624 26.676)" fill="#fff"></path>
  </g>
</svg>
