<?xml version="1.0" encoding="UTF-8"?>
<svg xmlns="http://www.w3.org/2000/svg" width="25.428" height="25.399" viewBox="0 0 25.428 25.399">
  <g id="Grupo_18" data-name="Grupo 18" transform="translate(-47.235 -49.499)">
    <path id="Caminho_13" data-name="Caminho 13" d="M11.688.031a12.961,12.961,0,0,1,6.4,1.154c.708.331,1.9.844,1.222,1.816-.563.808-1.621-.063-2.257-.338A10.933,10.933,0,1,0,23.269,9.9c-.176-.677-.812-1.751.132-2.147.843-.354,1.146.329,1.369.979A12.7,12.7,0,1,1,11.688.031" transform="translate(47.235 49.499)" fill="#16a34a"></path>
    <path id="Caminho_14" data-name="Caminho 14" d="M97.18,31.761a.891.891,0,0,1,.811,1.369L88.8,43.38c-3.16,3.157-6.032-1.267-8.583-2.882a.89.89,0,0,1,.951-1.5,3.3,3.3,0,0,1,.287.211c1.421,1.009,2.726,2.308,4.163,3.313a1.511,1.511,0,0,0,1.824-.274L96.58,32.052a1.051,1.051,0,0,1,.6-.291" transform="translate(-26.683 20.09)" fill="#16a34a"></path>
  </g>
</svg>
