<?xml version="1.0" encoding="UTF-8"?>
<svg xmlns="http://www.w3.org/2000/svg" width="25.401" height="25.399" viewBox="0 0 25.401 25.399">
  <g id="Grupo_19" data-name="Grupo 19" transform="translate(-47.3 -49.301)">
    <path id="Caminho_101" data-name="Caminho 101" d="M0,.547A.862.862,0,0,1,.669,0l7.22.025c.189.024.544.383.544.547V11.411l7.5-4.376a.759.759,0,0,1,.763.176,2.664,2.664,0,0,1,.215.355v3.845l7.5-4.376a.757.757,0,0,1,.981.678v16.97a.833.833,0,0,1-.548.716H.546A1.067,1.067,0,0,1,0,24.854Zm6.945.942H1.488v.992H6.945Zm0,2.481H1.488V23.911H23.91V9.029l-7.5,4.376a.759.759,0,0,1-.763-.176,2.586,2.586,0,0,1-.215-.355V9.029l-7.5,4.376a.759.759,0,0,1-.763-.176,2.586,2.586,0,0,1-.215-.355Z" transform="translate(47.3 49.301)" fill="#16a34a"></path>
    <path id="Caminho_102" data-name="Caminho 102" d="M9.823,21.413a18.216,18.216,0,0,1,2.813-.013c.491.046.824.24.87.766a22.219,22.219,0,0,1,0,2.981.733.733,0,0,1-.5.692,16.368,16.368,0,0,1-3.052.077c-.508-.04-.869-.215-.918-.768a21.075,21.075,0,0,1,.006-3.073.786.786,0,0,1,.779-.66m2.193,1.524H10.528v1.439h1.488Z" transform="translate(45.205 44.321)" fill="#16a34a"></path>
    <path id="Caminho_103" data-name="Caminho 103" d="M20.885,21.413A18.216,18.216,0,0,1,23.7,21.4c.491.046.824.24.871.766a22.477,22.477,0,0,1,0,2.981.734.734,0,0,1-.5.692,16.368,16.368,0,0,1-3.052.077c-.508-.04-.869-.215-.918-.768a21.075,21.075,0,0,1,.006-3.073.786.786,0,0,1,.779-.66m2.193,1.524H21.59v1.439h1.488Z" transform="translate(42.625 44.321)" fill="#16a34a"></path>
  </g>
</svg>
