<?xml version="1.0" encoding="UTF-8"?>
<svg xmlns="http://www.w3.org/2000/svg" xmlns:xlink="http://www.w3.org/1999/xlink" id="Logo" width="230.49" height="44.487" viewBox="0 0 230.49 44.487">
  <defs>
    <clipPath id="clip-path">
      <path id="Caminho_50" data-name="Caminho 50" d="M24.874.389l-5.5,4.572,2.156,2.6,2.767-2.3v7.981L16.512,19.7l2.155,2.6,5.626-4.671v9.616a2.844,2.844,0,0,1-2.84,2.841H0V33.46H21.454a6.222,6.222,0,0,0,6.215-6.215V17.7l5.625,4.671,2.156-2.6-7.782-6.463v-8l2.768,2.3,2.156-2.6L27.032.389a1.69,1.69,0,0,0-2.157,0" transform="translate(0 0)" fill="#fff"></path>
    </clipPath>
    <clipPath id="clip-path-2">
      <path id="Caminho_51" data-name="Caminho 51" d="M24.934,7.417l-6.491,5.13L12.15,7.572A1.691,1.691,0,0,0,11.1,7.208H6A5.938,5.938,0,0,0,.068,13.14v12.7a1.688,1.688,0,0,0,1.688,1.689H26.41a3.816,3.816,0,0,1,3.812,3.811v2.577a3.816,3.816,0,0,1-3.812,3.811H0V41.1H26.41A7.2,7.2,0,0,0,33.6,33.916V31.34a7.2,7.2,0,0,0-7.187-7.187H3.443V13.14A2.56,2.56,0,0,1,6,10.584h4.518L17.4,16.022a1.686,1.686,0,0,0,2.093,0l6.452-5.1,6.012,5.121,2.188-2.57L27.075,7.457a1.688,1.688,0,0,0-2.14-.039" transform="translate(0 -7.054)" fill="#fff"></path>
    </clipPath>
    <clipPath id="clip-path-4">
      <path id="Caminho_53" data-name="Caminho 53" d="M27.669,27.742a3.817,3.817,0,0,1,2.554,3.6v2.577a3.816,3.816,0,0,1-3.812,3.811H0V41.1H26.41A7.2,7.2,0,0,0,33.6,33.916V31.34a7.2,7.2,0,0,0-5.928-7.076ZM24.934,7.417l-6.491,5.13L12.15,7.572A1.691,1.691,0,0,0,11.1,7.208H6A5.938,5.938,0,0,0,.068,13.14v12.7a1.688,1.688,0,0,0,1.688,1.689H24.294V24.153H3.443V13.14A2.56,2.56,0,0,1,6,10.584h4.518L17.4,16.022a1.686,1.686,0,0,0,2.093,0l6.452-5.1,6.012,5.121,2.188-2.57L27.075,7.457a1.688,1.688,0,0,0-2.14-.039" transform="translate(0 -7.054)" fill="#fff"></path>
    </clipPath>
  </defs>
  <g id="Grupo_8" data-name="Grupo 8" transform="translate(0 0)">
    <g id="Grupo_7" data-name="Grupo 7" transform="translate(0 0)" clip-path="url(#clip-path)">
      <rect id="Retângulo_50" data-name="Retângulo 50" width="35.45" height="33.46" transform="translate(0 0)" fill="#fff"></rect>
    </g>
  </g>
  <g id="Grupo_10" data-name="Grupo 10" transform="translate(0 6.191)">
    <g id="Grupo_9" data-name="Grupo 9" transform="translate(0 0)" clip-path="url(#clip-path-2)">
      <rect id="Retângulo_51" data-name="Retângulo 51" width="46.591" height="46.558" transform="translate(-14.744 8.512) rotate(-30)" fill="#fff"></rect>
    </g>
  </g>
  <g id="Grupo_12" data-name="Grupo 12" transform="translate(0 0)">
    <g id="Grupo_11" data-name="Grupo 11" transform="translate(0 0)" clip-path="url(#clip-path)">
      <rect id="Retângulo_52" data-name="Retângulo 52" width="35.45" height="33.46" transform="translate(0 0)" fill="#fff"></rect>
    </g>
  </g>
  <g id="Grupo_14" data-name="Grupo 14" transform="translate(0 6.191)">
    <g id="Grupo_13" data-name="Grupo 13" transform="translate(0 0)" clip-path="url(#clip-path-4)">
      <rect id="Retângulo_53" data-name="Retângulo 53" width="46.591" height="46.558" transform="translate(-14.744 8.512) rotate(-30)" fill="#fff"></rect>
    </g>
  </g>
  <path id="Caminho_54" data-name="Caminho 54" d="M47.969,31.337v-18.4h6.5l3.781,9.7h.5l3.756-9.7h6.629v18.4H64.5v-15.7l.731.05L60.5,27.631h-4.26L51.472,15.684l.781-.05v15.7Z" transform="translate(-0.327 -10.881)" fill="#fff"></path>
  <path id="Caminho_65" data-name="Caminho 65" d="M83.265,31.719a10.307,10.307,0,0,1-4.322-.807A6.026,6.026,0,0,1,76.3,28.707a5.837,5.837,0,0,1-.895-3.214h4.537a2.091,2.091,0,0,0,.366,1.2,2.357,2.357,0,0,0,1.1.845,5.8,5.8,0,0,0,3.541.05A2.341,2.341,0,0,0,86,26.88a1.672,1.672,0,0,0,.366-1.083,1.405,1.405,0,0,0-.681-1.248,5.192,5.192,0,0,0-2.294-.567l-1.184-.1a7.508,7.508,0,0,1-4.538-1.79,5.253,5.253,0,0,1-1.688-4.083,5.521,5.521,0,0,1,.845-3.1,5.357,5.357,0,0,1,2.382-1.966,10.084,10.084,0,0,1,7.473.075,5.537,5.537,0,0,1,2.408,2.13,6.045,6.045,0,0,1,.832,3.189H85.382a2.089,2.089,0,0,0-1.172-1.9,3.452,3.452,0,0,0-2.647-.05,1.762,1.762,0,0,0-.781.668,1.794,1.794,0,0,0-.264.958A1.69,1.69,0,0,0,81,19.217a2.544,2.544,0,0,0,1.663.605l1.185.1a11.129,11.129,0,0,1,3.655.895A6.182,6.182,0,0,1,90,22.771,4.968,4.968,0,0,1,90.9,25.8a5.378,5.378,0,0,1-.92,3.125,5.925,5.925,0,0,1-2.622,2.067,10.351,10.351,0,0,1-4.1.731" transform="translate(-5.264 -10.76)" fill="#fff"></path>
  <path id="Caminho_66" data-name="Caminho 66" d="M104.692,12.937h4.255v18.94h-4.255Zm3.736,0h7.628v3.528h-7.628Zm0,11.338V20.72h7.316v3.528Z" transform="translate(-5.874 -11.436)" fill="#fff"></path>
  <path id="Caminho_67" data-name="Caminho 67" d="M119.8,12.937h5.863V16H119.8Zm1.686,0h4.177v18.94h-4.177Z" transform="translate(-8.229 -11.436)" fill="#fff"></path>
  <path id="Caminho_68" data-name="Caminho 68" d="M136.689,33.176a8.851,8.851,0,0,1-3.321-.583,7.156,7.156,0,0,1-2.465-1.609,6.911,6.911,0,0,1-1.531-2.335,7.433,7.433,0,0,1-.518-2.764v-.6a7.391,7.391,0,0,1,.544-2.815,6.966,6.966,0,0,1,1.57-2.348,7.4,7.4,0,0,1,2.477-1.6,9.415,9.415,0,0,1,6.525,0,7.289,7.289,0,0,1,2.452,1.6,7.068,7.068,0,0,1,1.556,2.348,7.391,7.391,0,0,1,.545,2.815v.6a7.434,7.434,0,0,1-.519,2.764,6.959,6.959,0,0,1-3.97,3.944,8.926,8.926,0,0,1-3.347.583m0-3.528a3.658,3.658,0,0,0,2.024-.519,3.254,3.254,0,0,0,1.219-1.453,5.479,5.479,0,0,0-.013-4.215,3.406,3.406,0,0,0-1.246-1.454,3.945,3.945,0,0,0-3.956,0,3.377,3.377,0,0,0-1.258,1.454,5.479,5.479,0,0,0-.013,4.215,3.189,3.189,0,0,0,1.245,1.453,3.687,3.687,0,0,0,2,.519" transform="translate(-9.641 -12.217)" fill="#fff"></path>
  <path id="Caminho_69" data-name="Caminho 69" d="M149.5,32.715V18.5h3.321V24.62h-.078a7.42,7.42,0,0,1,1.284-4.67,4.454,4.454,0,0,1,3.724-1.634h.544v3.606h-1.038a3.641,3.641,0,0,0-2.646.908,3.53,3.53,0,0,0-.934,2.646v7.239Z" transform="translate(-12.86 -12.275)" fill="#fff"></path>
  <path id="Caminho_70" data-name="Caminho 70" d="M167.693,33.177a7.753,7.753,0,0,1-3.2-.623,6.665,6.665,0,0,1-2.322-1.686,7.439,7.439,0,0,1-1.414-2.374,7.746,7.746,0,0,1-.479-2.685V25.29a7.9,7.9,0,0,1,.479-2.737,7.265,7.265,0,0,1,1.4-2.347,6.608,6.608,0,0,1,2.283-1.648,7.507,7.507,0,0,1,3.1-.609,6.9,6.9,0,0,1,3.853,1.024,6.8,6.8,0,0,1,2.4,2.672,7.872,7.872,0,0,1,.831,3.593v1.4H162.037V24.278H172.1l-1.374,1.116a6.03,6.03,0,0,0-.351-2.192,2.85,2.85,0,0,0-1.064-1.375,3.116,3.116,0,0,0-1.778-.48,3.359,3.359,0,0,0-1.842.48,2.967,2.967,0,0,0-1.141,1.427,6.126,6.126,0,0,0-.389,2.322,6.179,6.179,0,0,0,.363,2.218,3,3,0,0,0,1.141,1.466,3.588,3.588,0,0,0,2.024.518,3.55,3.55,0,0,0,1.868-.441,2.274,2.274,0,0,0,.986-1.09h3.814a6,6,0,0,1-1.22,2.542,6.314,6.314,0,0,1-2.283,1.751,7.467,7.467,0,0,1-3.165.636" transform="translate(-14.54 -12.217)" fill="#fff"></path>
  <path id="Caminho_71" data-name="Caminho 71" d="M184.579,33.139a7.88,7.88,0,0,1-4.748-1.259,4.38,4.38,0,0,1-1.816-3.516H181.7a1.877,1.877,0,0,0,.817,1.206,3.565,3.565,0,0,0,2.141.532,3.845,3.845,0,0,0,1.8-.376,1.171,1.171,0,0,0,.713-1.077,1.152,1.152,0,0,0-.558-1,4.4,4.4,0,0,0-1.932-.506l-1.116-.129a6.648,6.648,0,0,1-3.852-1.414,3.841,3.841,0,0,1-1.285-3,4.1,4.1,0,0,1,.753-2.516,4.6,4.6,0,0,1,2.088-1.531,8.389,8.389,0,0,1,3.049-.518,7.454,7.454,0,0,1,4.436,1.207,4.212,4.212,0,0,1,1.764,3.489h-3.71a1.705,1.705,0,0,0-.713-1.167,2.937,2.937,0,0,0-1.829-.493,2.833,2.833,0,0,0-1.531.363,1.119,1.119,0,0,0-.571.986,1.009,1.009,0,0,0,.493.908,4.024,4.024,0,0,0,1.609.441l1.116.1a7.731,7.731,0,0,1,4.073,1.453,3.817,3.817,0,0,1,1.453,3.139,4.05,4.05,0,0,1-.778,2.478,4.942,4.942,0,0,1-2.2,1.621,8.995,8.995,0,0,1-3.347.571" transform="translate(-17.306 -12.231)" fill="#fff"></path>
  <path id="Caminho_72" data-name="Caminho 72" d="M193.564,17.822h10.2v3.061h-10.2Zm8.2,14.425a9.273,9.273,0,0,1-3.477-.544,3.647,3.647,0,0,1-1.946-1.8,7.779,7.779,0,0,1-.623-3.413l.026-12.505h3.866V26.643a2.088,2.088,0,0,0,.532,1.544,2.052,2.052,0,0,0,1.518.532h2.1v3.528Z" transform="translate(-19.731 -11.599)" fill="#fff"></path>
  <path id="Caminho_73" data-name="Caminho 73" d="M211.755,33.069a6.227,6.227,0,0,1-2.685-.544,4.2,4.2,0,0,1-1.8-1.57,4.489,4.489,0,0,1-.648-2.452,3.942,3.942,0,0,1,.8-2.555,4.7,4.7,0,0,1,2.257-1.479,10.665,10.665,0,0,1,3.347-.48h3.036V26.3H213a2.4,2.4,0,0,0-1.673.532,1.852,1.852,0,0,0-.584,1.44,1.793,1.793,0,0,0,.584,1.389A2.4,2.4,0,0,0,213,30.19a3.092,3.092,0,0,0,1.259-.246,2.052,2.052,0,0,0,.921-.843,3.539,3.539,0,0,0,.415-1.661l.986,1.038a6,6,0,0,1-.713,2.491,3.987,3.987,0,0,1-1.609,1.556,5.281,5.281,0,0,1-2.5.544m4.54-.363V28.5h-.7v-4.54a2.281,2.281,0,0,0-.519-1.647,2.238,2.238,0,0,0-1.66-.533q-.571,0-1.5.026t-1.934.065q-1,.039-1.8.091v-3.5q.623-.052,1.427-.1t1.66-.078q.856-.025,1.608-.025a9.548,9.548,0,0,1,3.672.622,4.714,4.714,0,0,1,2.27,1.881,6.053,6.053,0,0,1,.778,3.229v8.718Z" transform="translate(-21.766 -12.265)" fill="#fff"></path>
  <path id="Caminho_74" data-name="Caminho 74" d="M222.822,12.937h5.863V16h-5.863Zm1.686,0h4.177v18.94h-4.177Z" transform="translate(-24.293 -11.436)" fill="#fff"></path>
  <text id="Soluções_Florestais_Sustentáveis" data-name="Soluções Florestais Sustentáveis" transform="translate(46.49 40.487)" fill="#36de74" font-size="15" font-family="SegoeUI, Segoe UI" letter-spacing="-0.058em">
    <tspan x="0" y="0">Soluções Florestais Sustentáveis</tspan>
  </text>
</svg>
